<svg width="11" height="78" viewBox="0 0 11 78" fill="none" xmlns="http://www.w3.org/2000/svg">
<path d="M4.80304 0.283106C4.98476 -0.0943702 5.52171 -0.0943673 5.70343 0.283106L10.4554 10.1601C10.6545 10.5745 10.236 11.0155 9.81183 10.8378L6.94659 9.63662C6.61714 9.49861 6.25323 9.74133 6.25323 10.0985L6.25323 70.4921C7.6989 70.9224 8.75323 72.2611 8.75323 73.8466C8.75323 75.7796 7.18623 77.3466 5.25323 77.3466C3.32024 77.3466 1.75323 75.7796 1.75323 73.8466C1.75323 72.2611 2.80757 70.9224 4.25323 70.4921L4.25323 10.0985C4.25323 9.74133 3.88933 9.4986 3.55988 9.63662L0.694641 10.8378C0.270472 11.0154 -0.148058 10.5745 0.0510861 10.1601L4.80304 0.283106Z" fill="#FD8C53"/>
</svg>
