<svg width="78" height="78" viewBox="0 0 78 78" fill="none" xmlns="http://www.w3.org/2000/svg">
<path d="M39 72V78C38.8288 78 38.658 77.9954 38.4873 77.9932L38.5645 71.9971C38.7093 71.9989 38.8546 72 39 72ZM39.5049 77.3711L39.5117 77.9932C39.3414 77.9954 39.1708 78 39 78V72C39.1454 72 39.2907 71.9989 39.4355 71.9971L39.5049 77.3711ZM36.834 71.9307L36.4473 77.9141C36.1065 77.892 35.767 77.8657 35.4287 77.835L35.9717 71.8633C36.2579 71.8893 36.5455 71.912 36.834 71.9307ZM42.0283 71.8633L42.5703 77.835C42.232 77.8657 41.8925 77.8921 41.5518 77.9141L41.166 71.9307C41.4545 71.912 41.7421 71.8893 42.0283 71.8633ZM34.2549 71.6621L33.4014 77.5977C33.0634 77.5491 32.7268 77.4967 32.3916 77.4395L33.4014 71.5283C33.6846 71.5767 33.9691 71.621 34.2549 71.6621ZM45.6074 77.4395C45.2723 77.4967 44.9357 77.5491 44.5977 77.5977L43.7451 71.6621C44.0309 71.621 44.3154 71.5767 44.5986 71.5283L45.6074 77.4395ZM31.708 71.1934L31.0479 74.1182L31.0488 74.1191L30.3887 77.043C30.0564 76.9681 29.7255 76.89 29.3965 76.8066L30.8701 70.9922C31.148 71.0626 31.4273 71.1301 31.708 71.1934ZM48.6025 76.8066C48.2735 76.89 47.9427 76.9681 47.6104 77.043L46.9512 74.1191L46.292 71.1934C46.5727 71.1301 46.852 71.0626 47.1299 70.9922L48.6025 76.8066ZM29.209 70.5254L27.4316 76.2549C27.1053 76.1537 26.7806 76.0489 26.458 75.9395L28.3877 70.2578C28.66 70.3502 28.9336 70.44 29.209 70.5254ZM51.541 75.9395C51.2184 76.0489 50.8937 76.1537 50.5674 76.2549L48.791 70.5254C49.0664 70.44 49.34 70.3502 49.6123 70.2578L51.541 75.9395ZM26.7686 69.6611L24.5439 75.2314C24.2274 75.105 23.913 74.9743 23.6006 74.8398L25.9717 69.3301C26.2355 69.4436 26.5013 69.5544 26.7686 69.6611ZM54.3984 74.8398C54.086 74.9743 53.7717 75.105 53.4551 75.2314L51.2314 69.6611C51.4987 69.5544 51.7645 69.4436 52.0283 69.3301L54.3984 74.8398ZM24.4053 68.6064L21.748 73.9834C21.4426 73.8325 21.1397 73.6772 20.8389 73.5186L23.6357 68.2139C23.8902 68.348 24.147 68.4788 24.4053 68.6064ZM54.3643 68.2139L57.1602 73.5186C56.8593 73.6772 56.5564 73.8325 56.251 73.9834L54.9238 71.2959L53.5957 68.6064C53.8538 68.4789 54.11 68.3479 54.3643 68.2139ZM22.1299 67.3691L19.0576 72.5195C18.7651 72.3451 18.475 72.1671 18.1875 71.9854L21.3926 66.916C21.6359 67.0699 21.8823 67.2215 22.1299 67.3691ZM59.8115 71.9854C59.524 72.1671 59.2339 72.3451 58.9414 72.5195L55.8701 67.3691C56.1177 67.2216 56.3641 67.0699 56.6074 66.916L59.8115 71.9854ZM19.957 65.9551L16.4902 70.8506C16.2122 70.6538 15.9366 70.4539 15.6641 70.25L19.2578 65.4463C19.4884 65.6188 19.7218 65.7886 19.957 65.9551ZM62.335 70.25C62.0624 70.4539 61.7868 70.6538 61.5088 70.8506L58.043 65.9551C58.2782 65.7886 58.5116 65.6188 58.7422 65.4463L62.335 70.25ZM17.9004 64.375L14.6934 68.2275L14.0625 68.9844C13.8007 68.7664 13.542 68.5449 13.2861 68.3203L17.2432 63.8125C17.4598 64.0026 17.6788 64.1905 17.9004 64.375ZM64.7129 68.3203C64.457 68.5449 64.1983 68.7664 63.9365 68.9844L62.0186 66.6807L60.0996 64.375C60.3212 64.1905 60.5402 64.0027 60.7568 63.8125L64.7129 68.3203ZM15.9736 62.6387L11.7881 66.9326C11.5444 66.6952 11.3038 66.4546 11.0664 66.2109L15.3613 62.0264C15.5625 62.2329 15.7671 62.4375 15.9736 62.6387ZM66.9326 66.2109C66.6952 66.4546 66.4546 66.6952 66.2109 66.9326L62.0264 62.6387C62.2329 62.4375 62.4375 62.2329 62.6387 62.0264L66.9326 66.2109ZM14.1875 60.7568L9.67871 64.7129C9.4541 64.457 9.2326 64.1983 9.01465 63.9365L13.625 60.0996C13.8095 60.3212 13.9973 60.5402 14.1875 60.7568ZM68.9844 63.9365C68.7664 64.1983 68.5449 64.457 68.3203 64.7129L63.8125 60.7568C64.0026 60.5402 64.1905 60.3212 64.375 60.0996L68.9844 63.9365ZM12.5537 58.7422L7.74902 62.335C7.54518 62.0624 7.34525 61.7868 7.14844 61.5088L12.0449 58.043C12.2114 58.2782 12.3812 58.5116 12.5537 58.7422ZM70.8506 61.5088C70.6538 61.7868 70.4539 62.0624 70.25 62.335L65.4463 58.7422C65.6188 58.5116 65.7886 58.2782 65.9551 58.043L70.8506 61.5088ZM11.084 56.6074L6.01367 59.8115C5.83189 59.524 5.6539 59.2339 5.47949 58.9414L10.6309 55.8701C10.7784 56.1177 10.9301 56.3641 11.084 56.6074ZM72.5195 58.9414C72.3451 59.2339 72.1671 59.524 71.9854 59.8115L66.916 56.6074C67.0699 56.3641 67.2215 56.1177 67.3691 55.8701L72.5195 58.9414ZM9.78613 54.3643L7.13086 55.7627L7.13184 55.7637L4.48047 57.1602C4.32186 56.8593 4.16654 56.5564 4.01562 56.251L9.39355 53.5957C9.52109 53.8538 9.65207 54.11 9.78613 54.3643ZM71.2949 54.9238L73.9834 56.251C73.8325 56.5564 73.6772 56.8593 73.5186 57.1602L70.8682 55.7637L68.2139 54.3643C68.3479 54.11 68.4789 53.8538 68.6064 53.5957L71.2949 54.9238ZM8.66992 52.0283L3.15918 54.3984C3.02477 54.086 2.89399 53.7717 2.76758 53.4551L8.33887 51.2314C8.44559 51.4987 8.55644 51.7645 8.66992 52.0283ZM75.2314 53.4551C75.105 53.7717 74.9743 54.086 74.8398 54.3984L69.3301 52.0283C69.4436 51.7645 69.5544 51.4987 69.6611 51.2314L75.2314 53.4551ZM7.74219 49.6123L2.05957 51.541C1.95009 51.2184 1.84535 50.8937 1.74414 50.5674L7.47461 48.791C7.56003 49.0664 7.64979 49.34 7.74219 49.6123ZM76.2549 50.5674C76.1537 50.8937 76.0489 51.2184 75.9395 51.541L70.2578 49.6123C70.3502 49.34 70.44 49.0664 70.5254 48.791L76.2549 50.5674ZM7.00781 47.1299L1.19238 48.6025C1.10907 48.2735 1.03094 47.9426 0.956055 47.6104L6.80664 46.292C6.86991 46.5727 6.93744 46.852 7.00781 47.1299ZM74.1182 46.9512L77.043 47.6104C76.9681 47.9427 76.89 48.2735 76.8066 48.6025L70.9922 47.1299C71.0626 46.852 71.1301 46.5727 71.1934 46.292L74.1182 46.9512ZM6.47168 44.5986L0.55957 45.6074C0.502374 45.2723 0.449953 44.9357 0.401367 44.5977L6.33789 43.7451C6.37897 44.0309 6.42335 44.3154 6.47168 44.5986ZM77.5977 44.5977C77.5491 44.9357 77.4967 45.2723 77.4395 45.6074L71.5283 44.5986C71.5767 44.3154 71.621 44.0309 71.6621 43.7451L77.5977 44.5977ZM6.13672 42.0283L0.164062 42.5703C0.133356 42.232 0.106971 41.8925 0.0849609 41.5518L6.06934 41.166C6.08798 41.4545 6.11074 41.7421 6.13672 42.0283ZM77.9141 41.5518C77.8921 41.8925 77.8657 42.232 77.835 42.5703L71.8633 42.0283C71.8893 41.7421 71.912 41.4545 71.9307 41.166L77.9141 41.5518ZM0 39C0 38.8288 0.00366067 38.658 0.00585938 38.4873L6.00293 38.5645C6.00106 38.7093 6 38.8546 6 39C6 39.1454 6.00106 39.2907 6.00293 39.4355L0.00585938 39.5117C0.00366903 39.3414 0 39.1708 0 39ZM77.9932 39.5117L71.9971 39.4355C71.9989 39.2907 72 39.1454 72 39C72 38.8546 71.9989 38.7093 71.9971 38.5645L77.9932 38.4873C77.9954 38.658 78 38.8288 78 39C78 39.1708 77.9954 39.3414 77.9932 39.5117ZM3.14941 35.7002L6.13672 35.9717C6.11074 36.2579 6.08798 36.5455 6.06934 36.834L0.0849609 36.4473C0.106979 36.1065 0.133348 35.767 0.164062 35.4287L3.14941 35.7002ZM77.835 35.4287C77.8657 35.767 77.892 36.1065 77.9141 36.4473L71.9307 36.834C71.912 36.5455 71.8893 36.2579 71.8633 35.9717L77.835 35.4287ZM6.47168 33.4014C6.42335 33.6846 6.37897 33.9691 6.33789 34.2549L0.401367 33.4014C0.449961 33.0634 0.502366 32.7267 0.55957 32.3916L6.47168 33.4014ZM77.4395 32.3916C77.4967 32.7268 77.5491 33.0634 77.5977 33.4014L71.6621 34.2549C71.621 33.9691 71.5767 33.6846 71.5283 33.4014L77.4395 32.3916ZM7.00781 30.8701C6.93744 31.148 6.86991 31.4273 6.80664 31.708L3.88086 31.0479L0.956055 30.3887C1.03095 30.0564 1.10907 29.7255 1.19238 29.3965L7.00781 30.8701ZM76.8066 29.3965C76.89 29.7255 76.9681 30.0564 77.043 30.3887L74.1191 31.0488L74.1182 31.0479L71.1934 31.708C71.1301 31.4273 71.0626 31.148 70.9922 30.8701L76.8066 29.3965ZM2.06055 26.459L7.74219 28.3877C7.64979 28.66 7.56003 28.9336 7.47461 29.209L1.74414 27.4316C1.84536 27.1053 1.95008 26.7806 2.05957 26.458L2.06055 26.459ZM75.9395 26.458C76.0489 26.7806 76.1537 27.1053 76.2549 27.4316L70.5254 29.209C70.44 28.9336 70.3502 28.66 70.2578 28.3877L75.9395 26.458ZM8.66992 25.9717C8.55644 26.2355 8.44559 26.5013 8.33887 26.7686L2.76758 24.5439C2.894 24.2274 3.02477 23.913 3.15918 23.6006L8.66992 25.9717ZM74.8398 23.6006C74.9743 23.913 75.105 24.2274 75.2314 24.5439L69.6611 26.7686C69.5544 26.5013 69.4436 26.2355 69.3301 25.9717L74.8398 23.6006ZM9.78613 23.6357C9.65199 23.8902 9.52116 24.147 9.39355 24.4053L4.01562 21.748C4.16654 21.4426 4.32185 21.1397 4.48047 20.8389L9.78613 23.6357ZM73.5186 20.8389C73.6772 21.1397 73.8325 21.4426 73.9834 21.748L68.6064 24.4053C68.4788 24.147 68.348 23.8902 68.2139 23.6357L73.5186 20.8389ZM11.084 21.3926C10.9301 21.6359 10.7784 21.8823 10.6309 22.1299L5.47949 19.0576C5.6539 18.7651 5.83189 18.475 6.01367 18.1875L11.084 21.3926ZM71.9854 18.1875C72.1671 18.475 72.3451 18.7651 72.5195 19.0576L67.3691 22.1299C67.2216 21.8823 67.0699 21.6359 66.916 21.3926L71.9854 18.1875ZM12.5537 19.2578C12.3812 19.4884 12.2114 19.7218 12.0449 19.957L7.14844 16.4902C7.34526 16.2122 7.54517 15.9366 7.74902 15.6641L12.5537 19.2578ZM70.25 15.6641C70.4539 15.9366 70.6538 16.2122 70.8506 16.4902L65.9551 19.957C65.7886 19.7218 65.6188 19.4884 65.4463 19.2578L70.25 15.6641ZM14.1875 17.2432C13.9973 17.4598 13.8095 17.6788 13.625 17.9004L9.01465 14.0625C9.2326 13.8007 9.4541 13.542 9.67871 13.2861L14.1875 17.2432ZM68.3203 13.2861C68.5449 13.542 68.7664 13.8007 68.9844 14.0625L66.6807 15.9814L66.6797 15.9805L64.375 17.9004C64.1905 17.6788 64.0027 17.4598 63.8125 17.2432L68.3203 13.2861ZM15.9736 15.3613C15.7671 15.5625 15.5625 15.7671 15.3613 15.9736L11.0664 11.7881C11.3038 11.5444 11.5444 11.3038 11.7881 11.0664L15.9736 15.3613ZM66.2109 11.0664C66.4546 11.3038 66.6952 11.5444 66.9326 11.7881L62.6387 15.9736C62.4375 15.7671 62.2329 15.5625 62.0264 15.3613L66.2109 11.0664ZM15.9814 11.3193L17.9004 13.625C17.6788 13.8095 17.4598 13.9973 17.2432 14.1875L13.2861 9.67871C13.542 9.4541 13.8007 9.2326 14.0625 9.01465L15.9814 11.3193ZM63.9365 9.01465C64.1983 9.2326 64.457 9.4541 64.7129 9.67871L60.7568 14.1875C60.5402 13.9973 60.3212 13.8095 60.0996 13.625L63.9365 9.01465ZM19.957 12.0449C19.7218 12.2114 19.4884 12.3812 19.2578 12.5537L15.6641 7.74902C15.9366 7.54517 16.2122 7.34526 16.4902 7.14844L19.957 12.0449ZM61.5088 7.14844C61.7868 7.34525 62.0624 7.54518 62.335 7.74902L58.7422 12.5537C58.5116 12.3812 58.2782 12.2114 58.043 12.0449L61.5088 7.14844ZM22.1299 10.6309C21.8823 10.7784 21.6359 10.9301 21.3926 11.084L18.1875 6.01367C18.475 5.83189 18.7651 5.6539 19.0576 5.47949L22.1299 10.6309ZM58.9414 5.47949C59.2339 5.6539 59.524 5.83189 59.8115 6.01367L56.6074 11.084C56.3641 10.9301 56.1177 10.7784 55.8701 10.6309L58.9414 5.47949ZM24.4053 9.39355C24.147 9.52116 23.8902 9.65199 23.6357 9.78613L20.8389 4.48047C21.1397 4.32185 21.4426 4.16654 21.748 4.01562L24.4053 9.39355ZM56.251 4.01562C56.5564 4.16654 56.8593 4.32186 57.1602 4.48047L54.3643 9.78613C54.11 9.65207 53.8538 9.52109 53.5957 9.39355L56.251 4.01562ZM26.7686 8.33887C26.5013 8.44559 26.2355 8.55644 25.9717 8.66992L23.6006 3.15918C23.913 3.02477 24.2274 2.894 24.5439 2.76758L26.7686 8.33887ZM53.4551 2.76758C53.7717 2.89399 54.086 3.02477 54.3984 3.15918L52.0283 8.66992C51.7645 8.55644 51.4987 8.44559 51.2314 8.33887L53.4551 2.76758ZM27.4316 1.74414L29.209 7.47461C28.9336 7.56003 28.66 7.64979 28.3877 7.74219L26.459 2.06055L26.458 2.05957C26.771 1.95335 27.0859 1.85137 27.4023 1.75293L27.4316 1.74414ZM50.5674 1.74414C50.8937 1.84535 51.2184 1.95009 51.541 2.05957L49.6123 7.74219C49.34 7.64979 49.0664 7.56003 48.791 7.47461L50.5674 1.74414ZM31.708 6.80664C31.4273 6.86991 31.148 6.93744 30.8701 7.00781L29.3965 1.19238C29.7255 1.10907 30.0564 1.03095 30.3887 0.956055L31.708 6.80664ZM47.6104 0.956055C47.9426 1.03094 48.2735 1.10907 48.6025 1.19238L47.1299 7.00781C46.852 6.93744 46.5727 6.86991 46.292 6.80664L47.6104 0.956055ZM34.2549 6.33789C33.9691 6.37897 33.6846 6.42335 33.4014 6.47168L32.3916 0.55957C32.7267 0.502366 33.0634 0.449961 33.4014 0.401367L34.2549 6.33789ZM44.5977 0.401367C44.9357 0.449953 45.2723 0.502374 45.6074 0.55957L44.5986 6.47168C44.3154 6.42335 44.0309 6.37897 43.7451 6.33789L44.5977 0.401367ZM36.834 6.06934C36.5455 6.08798 36.2579 6.11074 35.9717 6.13672L35.4287 0.164062C35.767 0.133348 36.1065 0.106979 36.4473 0.0849609L36.834 6.06934ZM41.5518 0.0849609C41.8925 0.106971 42.232 0.133356 42.5703 0.164062L42.501 0.94043L42.0283 6.13672C41.7421 6.11074 41.4545 6.08798 41.166 6.06934L41.5518 0.0849609ZM39.5117 0.00585938L39.4355 6.00293C39.2907 6.00106 39.1454 6 39 6C38.8546 6 38.7093 6.00106 38.5645 6.00293L38.4873 0.00585938C38.658 0.00366066 38.8288 0 39 0C39.1708 0 39.3414 0.00366903 39.5117 0.00585938Z" fill="white" fill-opacity="0.4"/>
</svg>
