<svg width="64" height="64" viewBox="0 0 64 64" fill="none" xmlns="http://www.w3.org/2000/svg">
<path d="M34.9982 18.6536C35.0005 18.8783 35.0757 19.0959 35.2148 19.2723L50.4375 38.5773C51.5 39.9999 52 40.5194 52 41.7701V45.5C52 46.0523 51.5523 46.5 51 46.5H38.075C37.5126 46.5 37.0779 46.0369 37.1359 45.4775C37.193 44.9269 37.1566 44.6831 36.4875 44.5595C36.197 44.5059 35.9034 44.6202 35.6939 44.8285L32.705 47.7993C32.3149 48.187 31.6851 48.187 31.295 47.7993L28.2572 44.7799C28.0763 44.6001 27.8328 44.4906 27.578 44.5005C26.7497 44.5324 26.7458 44.7928 26.8384 45.4577C26.9171 46.023 26.4738 46.5 25.9031 46.5H13C12.4477 46.5 12 46.0523 12 45.5V41.7701C12 40.5194 13 39.4999 13.5605 38.5773L28.7933 19.2986C28.9453 19.1063 29.0202 18.8653 29.0113 18.6202C28.8422 13.9585 30.4849 8.01358 32 8C33.8367 7.98353 34.9481 13.7266 34.9982 18.6536Z" fill="white" fill-opacity="0.1"/>
<path d="M29 17C29 15.3431 30 8 32 8C34 8 35 15.3431 35 17V46C35 47.6569 33.6569 49 32 49C30.3431 49 29 47.6569 29 46V17Z" fill="white" fill-opacity="0.1"/>
</svg>
