<svg width="64" height="64" viewBox="0 0 64 64" fill="none" xmlns="http://www.w3.org/2000/svg">
<path d="M32 3.57422C33.2067 3.57422 34.187 4.55319 34.1875 5.75977V6.13672C34.1876 7.18184 34.9235 8.11141 35.9512 8.27539C36.4517 8.35628 36.9479 8.45493 37.4375 8.56641C38.4518 8.79774 39.4771 8.21938 39.875 7.25977L40.0195 6.91797C40.483 5.80307 41.762 5.27359 42.877 5.73438C43.9919 6.19785 44.5215 7.48068 44.0605 8.5957L43.916 8.94336C43.5163 9.90752 43.8373 11.0487 44.7227 11.5996C45.151 11.8662 45.5716 12.1466 45.9824 12.4395C46.8308 13.0451 48.0053 12.9029 48.7422 12.166L49.0059 11.8984C49.8586 11.0435 51.2427 11.0435 52.0977 11.8984C52.9525 12.7512 52.9526 14.1353 52.0977 14.9902L51.8281 15.2539C51.0914 15.9908 50.9549 17.1653 51.5605 18.0137C51.8534 18.4246 52.1298 18.8451 52.3965 19.2734C52.9496 20.1589 54.0885 20.4799 55.0527 20.0801L55.4043 19.9355C56.5215 19.4723 57.7985 20.0041 58.2598 21.1191C58.7229 22.2362 58.1927 23.5131 57.0781 23.9746L56.7363 24.1211C55.7765 24.519 55.2021 25.5442 55.4336 26.5586C55.5451 27.0482 55.6379 27.5444 55.7188 28.0449C55.8849 29.0769 56.8182 29.8124 57.8633 29.8125H58.2402C59.4468 29.813 60.4258 30.7933 60.4258 32C60.4258 33.2067 59.4468 34.187 58.2402 34.1875H57.8633C56.8182 34.1876 55.8881 34.9257 55.7285 35.9512C55.6476 36.4517 55.549 36.9479 55.4375 37.4375C55.2063 38.4516 55.7848 39.477 56.7441 39.875L57.0859 40.0156C58.201 40.4792 58.7307 41.7579 58.2695 42.873C57.806 43.9881 56.5233 44.5177 55.4082 44.0566L55.0625 43.9102C54.0983 43.51 52.9573 43.8372 52.4062 44.7227C52.1395 45.1512 51.8575 45.5713 51.5645 45.9824C50.9588 46.8308 51.1011 47.9994 51.8379 48.7363L52.1016 49.0059C52.9565 49.8586 52.9543 51.2427 52.1016 52.0977C51.2488 52.9524 49.8646 52.9525 49.0098 52.0977L48.7461 51.8281C48.0092 51.0913 46.8347 50.9549 45.9863 51.5605C45.5754 51.8534 45.1549 52.1298 44.7266 52.3965C43.8411 52.9496 43.52 54.0885 43.9199 55.0527L44.0645 55.4043C44.5275 56.5212 43.9971 57.7981 42.8828 58.2598C41.7657 58.7232 40.487 58.1928 40.0254 57.0781L39.8789 56.7363C39.481 55.7765 38.4559 55.202 37.4414 55.4336C36.9517 55.5451 36.4557 55.6379 35.9551 55.7188C34.923 55.8849 34.1876 56.8181 34.1875 57.8633V58.2383C34.1875 59.4453 33.207 60.4258 32 60.4258C30.793 60.4257 29.8145 59.4453 29.8145 58.2383V57.8633C29.8144 56.8181 29.0743 55.8881 28.0488 55.7285C27.5484 55.6476 27.0521 55.549 26.5625 55.4375C25.5483 55.2063 24.5229 55.7847 24.125 56.7441L23.9844 57.0859C23.5208 58.201 22.2421 58.7307 21.127 58.2695C20.012 57.806 19.4824 56.5232 19.9434 55.4082L20.0898 55.0625C20.49 54.0983 20.1628 52.9573 19.2773 52.4062C18.8488 52.1395 18.4286 51.8574 18.0176 51.5645C17.1692 50.9588 16.0006 51.101 15.2637 51.8379L14.9941 52.1016C14.1414 52.9565 12.7573 52.9543 11.9023 52.1016C11.0476 51.2488 11.0475 49.8647 11.9023 49.0098L12.1719 48.7461C12.9087 48.0092 13.0451 46.8347 12.4395 45.9863C12.1466 45.5754 11.8702 45.1549 11.6035 44.7266C11.0504 43.8411 9.9115 43.52 8.94727 43.9199L8.5957 44.0645C7.4785 44.5275 6.20152 43.9958 5.74023 42.8809C5.27714 41.7639 5.80739 40.487 6.92188 40.0254L7.26367 39.8789C8.22345 39.481 8.79791 38.4558 8.56641 37.4414C8.45493 36.9518 8.36213 36.4556 8.28125 35.9551C8.11507 34.923 7.18189 34.1875 6.13672 34.1875H5.76172C4.55472 34.1875 3.57423 33.207 3.57422 32C3.57422 30.793 4.55471 29.8125 5.76172 29.8125H6.13672C7.18189 29.8125 8.1114 29.0748 8.27539 28.0449C8.35629 27.5443 8.45491 27.0483 8.56641 26.5586C8.79793 25.5442 8.21947 24.519 7.25977 24.1211L6.91797 23.9805C5.80306 23.517 5.27358 22.238 5.73438 21.123C6.19783 20.0081 7.48071 19.4786 8.5957 19.9395L8.94336 20.084C9.90755 20.4838 11.0487 20.1611 11.5996 19.2734C11.8663 18.845 12.1448 18.4264 12.4355 18.0176C13.0412 17.167 12.9029 15.9947 12.166 15.2578L11.9023 14.9941C11.0496 14.1414 11.0496 12.7573 11.9023 11.9023C12.7551 11.0474 14.1392 11.0474 14.9941 11.9023L15.2598 12.166C15.9967 12.9029 17.1692 13.0412 18.0176 12.4355C18.4264 12.1448 18.845 11.8663 19.2734 11.5996C20.1611 11.0487 20.4822 9.9093 20.0801 8.94727L19.9355 8.5957C19.4724 7.47848 20.0042 6.20153 21.1191 5.74023C22.2362 5.27705 23.5131 5.8073 23.9746 6.92188L24.1211 7.26367C24.519 8.22342 25.5442 8.79786 26.5586 8.56641C27.0482 8.45493 27.5444 8.36213 28.0449 8.28125C29.0769 8.11508 29.8144 7.18184 29.8145 6.13672V5.75977C29.815 4.55322 30.7933 3.57427 32 3.57422ZM32 12C20.9543 12 12 20.9543 12 32C12 43.0457 20.9543 52 32 52C43.0457 52 52 43.0457 52 32C52 20.9543 43.0457 12 32 12Z" fill="white" fill-opacity="0.5"/>
<circle cx="32" cy="32" r="22" stroke="white" stroke-width="4"/>
<path d="M20.0005 11.2148C20.9569 10.6628 22.1806 10.991 22.7329 11.9472L33.0142 29.7577C33.0881 29.7891 33.1616 29.8239 33.2329 29.8651C33.3036 29.9059 33.3704 29.9521 33.4341 29.9998H54.0005C55.105 29.9998 56.0003 30.8955 56.0006 31.9998C56.0006 33.1044 55.1051 33.9998 54.0005 33.9998H33.1548L22.7329 52.0525C22.1806 53.0091 20.9571 53.3372 20.0005 52.7849C19.0441 52.2326 18.716 51.009 19.268 50.0525L29.6899 31.9979L19.268 13.9472C18.7163 12.9907 19.0441 11.7669 20.0005 11.2148Z" fill="white" fill-opacity="0.5"/>
<circle cx="32" cy="32" r="6" fill="white"/>
</svg>
