<svg width="64" height="64" viewBox="0 0 64 64" fill="none" xmlns="http://www.w3.org/2000/svg">
<path d="M32 9C34 9 35 16.3431 35 18V24H29V18C29 16.3431 30 9 32 9Z" fill="#9BCBFF"/>
<path d="M36.7998 53C36.9103 53 37 53.0897 37 53.2002V53.7998C37 53.9103 36.9103 54 36.7998 54H27.2002C27.0897 54 27 53.9103 27 53.7998V53.2002C27 53.0897 27.0897 53 27.2002 53H28V52C27.4477 52 27 51.5523 27 51V31.0244C27 30.2067 27.6672 27.615 29 25.8193V24H35V25.8193C36.3328 27.615 37 30.2067 37 31.0244V51C37 51.5523 36.5523 52 36 52V53H36.7998Z" fill="#0A84FF"/>
<path d="M45 9C47 9 48 16.3431 48 18V24H42V18C42 16.3431 43 9 45 9Z" fill="#9BCBFF"/>
<path d="M49.7998 53C49.9103 53 50 53.0897 50 53.2002V53.7998C50 53.9103 49.9103 54 49.7998 54H40.2002C40.0897 54 40 53.9103 40 53.7998V53.2002C40 53.0897 40.0897 53 40.2002 53H41V52C40.4477 52 40 51.5523 40 51V31.0244C40 30.2067 40.6672 27.615 42 25.8193V24H48V25.8193C49.3328 27.615 50 30.2067 50 31.0244V51C50 51.5523 49.5523 52 49 52V53H49.7998Z" fill="#0A84FF"/>
<path d="M19 9C21 9 22 16.3431 22 18V24H16V18C16 16.3431 17 9 19 9Z" fill="#9BCBFF"/>
<path d="M23.7998 53C23.9103 53 24 53.0897 24 53.2002V53.7998C24 53.9103 23.9103 54 23.7998 54H14.2002C14.0897 54 14 53.9103 14 53.7998V53.2002C14 53.0897 14.0897 53 14.2002 53H15V52C14.4477 52 14 51.5523 14 51V31.0244C14 30.2067 14.6672 27.615 16 25.8193V24H22V25.8193C23.3328 27.615 24 30.2067 24 31.0244V51C24 51.5523 23.5523 52 23 52V53H23.7998Z" fill="#0A84FF"/>
</svg>
