<svg width="68" height="71" viewBox="0 0 68 71" fill="none" xmlns="http://www.w3.org/2000/svg">
<g filter="url(#filter0_d_1966_56207)">
<path d="M36.1073 19.3486C36.5583 19.1748 37.0839 19.2749 37.3848 19.6532L52.4375 38.5774C53.5 40 54 40.5194 54 41.7702V45.5C54 46.0523 53.5523 46.5 53 46.5H40.075C39.5126 46.5 39.0779 46.037 39.1359 45.4776C39.193 44.927 39.1566 44.6832 38.4875 44.5596C38.197 44.5059 37.9034 44.6203 37.6939 44.8285L34.705 47.7993C34.3149 48.187 33.6851 48.187 33.295 47.7993L30.2572 44.7799C30.0763 44.6001 29.8328 44.4907 29.578 44.5005C28.7497 44.5325 28.7458 44.7928 28.8384 45.4577C28.9171 46.023 28.4738 46.5 27.9031 46.5H15C14.4477 46.5 14 46.0523 14 45.5V41.7702C14 40.5194 15 39.5 15.5605 38.5774L30.5219 19.6421C30.8171 19.2686 31.3321 19.1627 31.7773 19.3311C33.2381 19.8837 34.7035 19.8896 36.1073 19.3486Z" fill="#8F3000"/>
<path d="M31 17C31 15.3431 32 8 34 8C36 8 37 15.3431 37 17V46C37 47.6569 35.6569 49 34 49C32.3431 49 31 47.6569 31 46V17Z" fill="#E04B00"/>
</g>
<defs>
<filter id="filter0_d_1966_56207" x="-12" y="-6" width="92" height="92" filterUnits="userSpaceOnUse" color-interpolation-filters="sRGB">
<feFlood flood-opacity="0" result="BackgroundImageFix"/>
<feColorMatrix in="SourceAlpha" type="matrix" values="0 0 0 0 0 0 0 0 0 0 0 0 0 0 0 0 0 0 127 0" result="hardAlpha"/>
<feOffset dy="8"/>
<feGaussianBlur stdDeviation="7"/>
<feColorMatrix type="matrix" values="0 0 0 0 0 0 0 0 0 0 0 0 0 0 0 0 0 0 0.5 0"/>
<feBlend mode="normal" in2="BackgroundImageFix" result="effect1_dropShadow_1966_56207"/>
<feBlend mode="normal" in="SourceGraphic" in2="effect1_dropShadow_1966_56207" result="shape"/>
</filter>
</defs>
</svg>
